<svg width="107" height="16" viewBox="0 0 107 16" fill="none" xmlns="http://www.w3.org/2000/svg">
<path d="M9.32617 11.582H4.375L3.30078 15H0.273438L5.16602 0.908203H8.63281L13.5352 15H10.4004L9.32617 11.582ZM5.00977 9.375H8.69141L6.88477 3.60352H6.81641L5.00977 9.375ZM17.002 10.9863C17.0345 11.2793 17.1322 11.543 17.2949 11.7773C17.4577 12.0117 17.666 12.2135 17.9199 12.3828C18.1803 12.5521 18.4798 12.6823 18.8184 12.7734C19.1569 12.8646 19.5215 12.9102 19.9121 12.9102C20.3027 12.9102 20.6608 12.8678 20.9863 12.7832C21.3118 12.6921 21.5918 12.5684 21.8262 12.4121C22.0605 12.2493 22.2396 12.0605 22.3633 11.8457C22.4935 11.6243 22.5586 11.3835 22.5586 11.123C22.5586 10.6673 22.373 10.2995 22.002 10.0195C21.6374 9.73958 21.0319 9.50521 20.1855 9.31641L18.3496 8.91602C15.765 8.36263 14.4727 7.05078 14.4727 4.98047C14.4727 4.32943 14.6061 3.74023 14.873 3.21289C15.14 2.67904 15.5111 2.22331 15.9863 1.8457C16.4681 1.4681 17.0378 1.17839 17.6953 0.976562C18.3529 0.768229 19.0755 0.664062 19.8633 0.664062C20.6836 0.664062 21.4225 0.764974 22.0801 0.966797C22.7441 1.16862 23.3073 1.45508 23.7695 1.82617C24.2383 2.19727 24.5996 2.64323 24.8535 3.16406C25.1074 3.6849 25.2409 4.26432 25.2539 4.90234H22.4902C22.4642 4.60286 22.3828 4.33594 22.2461 4.10156C22.1094 3.86719 21.9271 3.66862 21.6992 3.50586C21.4714 3.33659 21.2012 3.20964 20.8887 3.125C20.5827 3.03385 20.2441 2.98828 19.873 2.98828C19.5085 2.98828 19.1764 3.0306 18.877 3.11523C18.5775 3.19987 18.3203 3.31706 18.1055 3.4668C17.8971 3.61654 17.7344 3.79883 17.6172 4.01367C17.5 4.22852 17.4414 4.46615 17.4414 4.72656C17.4414 5.16276 17.6204 5.51432 17.9785 5.78125C18.3431 6.04818 18.9323 6.27279 19.7461 6.45508L21.4551 6.81641C22.1582 6.96615 22.7637 7.1582 23.2715 7.39258C23.7858 7.62044 24.209 7.89714 24.541 8.22266C24.873 8.54167 25.1172 8.91602 25.2734 9.3457C25.4297 9.76888 25.5078 10.2474 25.5078 10.7812C25.5078 11.4648 25.3743 12.0833 25.1074 12.6367C24.8405 13.1836 24.4596 13.6523 23.9648 14.043C23.4701 14.4271 22.8678 14.7233 22.1582 14.9316C21.4551 15.14 20.6673 15.2441 19.7949 15.2441C18.9486 15.2441 18.1836 15.1465 17.5 14.9512C16.8164 14.7559 16.2305 14.4759 15.7422 14.1113C15.2539 13.7402 14.873 13.2943 14.5996 12.7734C14.3262 12.2461 14.1797 11.6504 14.1602 10.9863H17.002ZM29.6387 10.9863C29.6712 11.2793 29.7689 11.543 29.9316 11.7773C30.0944 12.0117 30.3027 12.2135 30.5566 12.3828C30.8171 12.5521 31.1165 12.6823 31.4551 12.7734C31.7936 12.8646 32.1582 12.9102 32.5488 12.9102C32.9395 12.9102 33.2975 12.8678 33.623 12.7832C33.9486 12.6921 34.2285 12.5684 34.4629 12.4121C34.6973 12.2493 34.8763 12.0605 35 11.8457C35.1302 11.6243 35.1953 11.3835 35.1953 11.123C35.1953 10.6673 35.0098 10.2995 34.6387 10.0195C34.2741 9.73958 33.6686 9.50521 32.8223 9.31641L30.9863 8.91602C28.4017 8.36263 27.1094 7.05078 27.1094 4.98047C27.1094 4.32943 27.2428 3.74023 27.5098 3.21289C27.7767 2.67904 28.1478 2.22331 28.623 1.8457C29.1048 1.4681 29.6745 1.17839 30.332 0.976562C30.9896 0.768229 31.7122 0.664062 32.5 0.664062C33.3203 0.664062 34.0592 0.764974 34.7168 0.966797C35.3809 1.16862 35.944 1.45508 36.4062 1.82617C36.875 2.19727 37.2363 2.64323 37.4902 3.16406C37.7441 3.6849 37.8776 4.26432 37.8906 4.90234H35.127C35.1009 4.60286 35.0195 4.33594 34.8828 4.10156C34.7461 3.86719 34.5638 3.66862 34.3359 3.50586C34.1081 3.33659 33.8379 3.20964 33.5254 3.125C33.2194 3.03385 32.8809 2.98828 32.5098 2.98828C32.1452 2.98828 31.8132 3.0306 31.5137 3.11523C31.2142 3.19987 30.957 3.31706 30.7422 3.4668C30.5339 3.61654 30.3711 3.79883 30.2539 4.01367C30.1367 4.22852 30.0781 4.46615 30.0781 4.72656C30.0781 5.16276 30.2572 5.51432 30.6152 5.78125C30.9798 6.04818 31.569 6.27279 32.3828 6.45508L34.0918 6.81641C34.7949 6.96615 35.4004 7.1582 35.9082 7.39258C36.4225 7.62044 36.8457 7.89714 37.1777 8.22266C37.5098 8.54167 37.7539 8.91602 37.9102 9.3457C38.0664 9.76888 38.1445 10.2474 38.1445 10.7812C38.1445 11.4648 38.0111 12.0833 37.7441 12.6367C37.4772 13.1836 37.0964 13.6523 36.6016 14.043C36.1068 14.4271 35.5046 14.7233 34.7949 14.9316C34.0918 15.14 33.304 15.2441 32.4316 15.2441C31.5853 15.2441 30.8203 15.1465 30.1367 14.9512C29.4531 14.7559 28.8672 14.4759 28.3789 14.1113C27.8906 13.7402 27.5098 13.2943 27.2363 12.7734C26.9629 12.2461 26.8164 11.6504 26.7969 10.9863H29.6387ZM39.9609 15V0.908203H42.9102V15H39.9609ZM47.5684 10.9863C47.6009 11.2793 47.6986 11.543 47.8613 11.7773C48.0241 12.0117 48.2324 12.2135 48.4863 12.3828C48.7467 12.5521 49.0462 12.6823 49.3848 12.7734C49.7233 12.8646 50.0879 12.9102 50.4785 12.9102C50.8691 12.9102 51.2272 12.8678 51.5527 12.7832C51.8783 12.6921 52.1582 12.5684 52.3926 12.4121C52.627 12.2493 52.806 12.0605 52.9297 11.8457C53.0599 11.6243 53.125 11.3835 53.125 11.123C53.125 10.6673 52.9395 10.2995 52.5684 10.0195C52.2038 9.73958 51.5983 9.50521 50.752 9.31641L48.916 8.91602C46.3314 8.36263 45.0391 7.05078 45.0391 4.98047C45.0391 4.32943 45.1725 3.74023 45.4395 3.21289C45.7064 2.67904 46.0775 2.22331 46.5527 1.8457C47.0345 1.4681 47.6042 1.17839 48.2617 0.976562C48.9193 0.768229 49.6419 0.664062 50.4297 0.664062C51.25 0.664062 51.9889 0.764974 52.6465 0.966797C53.3105 1.16862 53.8737 1.45508 54.3359 1.82617C54.8047 2.19727 55.166 2.64323 55.4199 3.16406C55.6738 3.6849 55.8073 4.26432 55.8203 4.90234H53.0566C53.0306 4.60286 52.9492 4.33594 52.8125 4.10156C52.6758 3.86719 52.4935 3.66862 52.2656 3.50586C52.0378 3.33659 51.7676 3.20964 51.4551 3.125C51.1491 3.03385 50.8105 2.98828 50.4395 2.98828C50.0749 2.98828 49.7428 3.0306 49.4434 3.11523C49.1439 3.19987 48.8867 3.31706 48.6719 3.4668C48.4635 3.61654 48.3008 3.79883 48.1836 4.01367C48.0664 4.22852 48.0078 4.46615 48.0078 4.72656C48.0078 5.16276 48.1868 5.51432 48.5449 5.78125C48.9095 6.04818 49.4987 6.27279 50.3125 6.45508L52.0215 6.81641C52.7246 6.96615 53.3301 7.1582 53.8379 7.39258C54.3522 7.62044 54.7754 7.89714 55.1074 8.22266C55.4395 8.54167 55.6836 8.91602 55.8398 9.3457C55.9961 9.76888 56.0742 10.2474 56.0742 10.7812C56.0742 11.4648 55.9408 12.0833 55.6738 12.6367C55.4069 13.1836 55.026 13.6523 54.5312 14.043C54.0365 14.4271 53.4342 14.7233 52.7246 14.9316C52.0215 15.14 51.2337 15.2441 50.3613 15.2441C49.515 15.2441 48.75 15.1465 48.0664 14.9512C47.3828 14.7559 46.7969 14.4759 46.3086 14.1113C45.8203 13.7402 45.4395 13.2943 45.166 12.7734C44.8926 12.2461 44.7461 11.6504 44.7266 10.9863H47.5684ZM61.3086 15V3.33984H57.1875V0.908203H68.3887V3.33984H64.2578V15H61.3086ZM76.2598 11.582H71.3086L70.2344 15H67.207L72.0996 0.908203H75.5664L80.4688 15H77.334L76.2598 11.582ZM71.9434 9.375H75.625L73.8184 3.60352H73.75L71.9434 9.375ZM81.9141 15V0.908203H84.375L90.957 10.0879H91.0352V0.908203H93.8574V15H91.416L84.8242 5.77148H84.7363V15H81.9141ZM99.6289 15V3.33984H95.5078V0.908203H106.709V3.33984H102.578V15H99.6289Z" fill="#189A48"/>
</svg>
