<svg width="26" height="26" viewBox="0 0 26 26" fill="none" xmlns="http://www.w3.org/2000/svg">
<path d="M13 0C5.83189 0 0 5.83189 0 13C0 20.1681 5.83189 26 13 26C15.286 26 17.5338 25.3986 19.5016 24.26L17.875 21.4463C16.4008 22.2993 14.7146 22.75 13 22.75C7.62356 22.75 3.24999 18.3764 3.24999 13C3.24999 7.62356 7.62356 3.24999 13 3.24999C18.3764 3.24999 22.75 7.62356 22.75 13V14.4155C22.75 15.4788 22.0669 16.25 21.125 16.25C20.2292 16.25 19.5 15.5208 19.5 14.625V8.12499H17.2536C16.1105 7.12631 14.6336 6.49997 13 6.49997C9.41595 6.49997 6.49997 9.41595 6.49997 13C6.49997 16.5841 9.41595 19.5 13 19.5C14.7067 19.5 16.2498 18.8251 17.4108 17.7453C18.3058 18.8088 19.6294 19.5 21.125 19.5C23.8585 19.5 26 17.2665 26 14.4155V13C26 5.83189 20.1681 0 13 0V0ZM13 16.25C11.2076 16.25 9.75001 14.7924 9.75001 13C9.75001 11.2076 11.2076 9.75001 13 9.75001C14.7924 9.75001 16.25 11.2076 16.25 13C16.25 14.7924 14.7924 16.25 13 16.25Z" fill="url(#paint0_angular)"/>
<defs>
<radialGradient id="paint0_angular" cx="0" cy="0" r="1" gradientUnits="userSpaceOnUse" gradientTransform="translate(9.20833 -4.33333) rotate(80.5377) scale(23.0638 28.4512)">
<stop stop-color="#189A48"/>
<stop offset="0.0843747" stop-color="#F6EB0C"/>
<stop offset="0.698958" stop-color="#4FBAB8"/>
<stop offset="0.891666" stop-color="#35B2D3"/>
</radialGradient>
</defs>
</svg>
