<svg width="25" height="23" viewBox="0 0 25 23" fill="none" xmlns="http://www.w3.org/2000/svg">
<path d="M9.69844 22.6829C10.1146 23.1205 10.7745 23.1032 11.1708 22.6432C11.5677 22.1832 11.551 21.4553 11.1349 21.0171L3.14427 12.6502L23.9583 12.6502C24.5333 12.6502 25 12.135 25 11.5002C25 10.8653 24.5333 10.3501 23.9583 10.3501L3.17761 10.3501L11.1349 1.98263C11.5516 1.54447 11.5677 0.816509 11.1708 0.356504C10.9661 0.1196 10.6917 0 10.4167 0C10.1583 0 9.9 0.105225 9.69844 0.317404L0.610418 9.87403C0.216667 10.3082 0 10.8855 0 11.5002C0 12.1148 0.216667 12.6921 0.628647 13.1458L9.69844 22.6829Z" fill="#201F3A"/>
</svg>
