<svg width="23" height="23" viewBox="0 0 23 23" fill="none" xmlns="http://www.w3.org/2000/svg">
<path d="M2.22363 23C1.72743 23 1.3252 22.5978 1.3252 22.1016C1.3252 17.5934 4.99284 13.9258 9.50098 13.9258H10.8486C11.7712 13.9258 12.6771 14.0785 13.5411 14.3797C14.0097 14.5431 14.2571 15.0553 14.0937 15.5238C13.9304 15.9924 13.4181 16.2398 12.9496 16.0764C12.2762 15.8417 11.5693 15.7227 10.8486 15.7227H9.50098C5.98364 15.7227 3.12207 18.5842 3.12207 22.1016C3.12207 22.5978 2.71984 23 2.22363 23ZM16.1494 6.06445C16.1494 2.72051 13.4289 0 10.085 0C6.74102 0 4.02051 2.72051 4.02051 6.06445C4.02051 9.40839 6.74102 12.1289 10.085 12.1289C13.4289 12.1289 16.1494 9.40839 16.1494 6.06445ZM14.3525 6.06445C14.3525 8.4176 12.4381 10.332 10.085 10.332C7.73182 10.332 5.81738 8.4176 5.81738 6.06445C5.81738 3.71131 7.73182 1.79688 10.085 1.79688C12.4381 1.79688 14.3525 3.71131 14.3525 6.06445ZM20.7764 17.6094H18.0811V14.9141C18.0811 14.4179 17.6788 14.0156 17.1826 14.0156C16.6864 14.0156 16.2842 14.4179 16.2842 14.9141V17.6094H13.5889C13.0927 17.6094 12.6904 18.0116 12.6904 18.5078C12.6904 19.004 13.0927 19.4062 13.5889 19.4062H16.2842V22.1016C16.2842 22.5978 16.6864 23 17.1826 23C17.6788 23 18.0811 22.5978 18.0811 22.1016V19.4062H20.7764C21.2726 19.4062 21.6748 19.004 21.6748 18.5078C21.6748 18.0116 21.2726 17.6094 20.7764 17.6094Z" fill="#201F3A"/>
</svg>
