<svg width="29" height="23" viewBox="0 0 29 23" fill="none" xmlns="http://www.w3.org/2000/svg">
<path d="M13.4763 5.75032H10.781V0.958798C10.781 0.56206 10.5528 0.207488 10.2078 0.0637419C9.86275 -0.0780871 9.46923 0.0215766 9.21766 0.314818L0.233148 10.8562C-0.0777161 11.2203 -0.0777161 11.778 0.233148 12.1441L9.21766 22.6855C9.39196 22.8886 9.63455 22.9998 9.88252 22.9998C9.99213 22.9998 10.1017 22.9787 10.2078 22.9365C10.5528 22.7928 10.781 22.4382 10.781 22.0415V17.25H13.2805C18.4088 17.25 23.3755 19.2087 27.2676 22.7698C27.5317 23.0132 27.9108 23.0688 28.2271 22.9116C28.547 22.7564 28.75 22.4152 28.75 22.0415C28.75 13.0583 21.8984 5.75032 13.4763 5.75032ZM13.2805 15.3334H9.88252C9.38657 15.3334 8.98407 15.7627 8.98407 16.2917V19.5633L2.11271 11.5001L8.98407 3.43697V6.70862C8.98407 7.23761 9.38657 7.66693 9.88252 7.66693H13.4763C17.0755 7.66693 20.4609 9.16188 23.0053 11.8758C25.0843 14.0933 26.4014 16.9088 26.8129 19.9562C22.8777 16.9625 18.1465 15.3334 13.2805 15.3334Z" fill="#201F3A"/>
</svg>
