<svg width="23" height="23" viewBox="0 0 23 23" fill="none" xmlns="http://www.w3.org/2000/svg">
<path d="M20.1661 5.31241H12.8865C12.591 5.31241 12.3024 5.19108 12.1031 4.98484L9.83172 2.59213C9.28574 2.0479 8.53873 1.76364 7.78216 1.76799H2.83385C1.27133 1.76795 0 3.03928 0 4.60175V18.3983C0 19.9608 1.27133 21.2321 2.83385 21.2321H20.1765H20.1791C21.7408 21.2252 23.0069 19.9478 23 18.3896V8.14621C23 6.5837 21.7286 5.31241 20.1661 5.31241ZM21.2667 18.3931C21.2693 18.9997 20.778 19.4963 20.1748 19.4989H2.83385C2.22722 19.4989 1.73326 19.0049 1.73326 18.3983V4.60175C1.73326 3.99513 2.22722 3.50117 2.83385 3.50027H7.80471C7.81424 3.50027 7.82376 3.50027 7.83333 3.50027C8.12276 3.50027 8.40356 3.61554 8.59246 3.80273L10.8517 6.18416C11.3821 6.73185 12.1239 7.04559 12.8865 7.04559H20.1661C20.7727 7.04559 21.2667 7.53955 21.2667 8.14617V18.3931H21.2667Z" fill="#201F3A"/>
</svg>
