<svg width="25" height="23" viewBox="0 0 25 23" fill="none" xmlns="http://www.w3.org/2000/svg">
<path d="M14.3202 0.0814561C14.0343 -0.0548954 13.6976 -0.0187541 13.4512 0.180023L5.46063 6.57211H1.64279C0.737612 6.57211 0 7.30973 0 8.2149V14.7861C0 15.6912 0.737612 16.4288 1.64279 16.4288H5.46063L13.4495 22.8209C13.599 22.9392 13.7814 23 13.9637 23C14.0853 23 14.2068 22.9737 14.3202 22.9195C14.6044 22.7815 14.7851 22.494 14.7851 22.1786V0.822354C14.7851 0.506938 14.6044 0.21945 14.3202 0.0814561ZM4.92837 14.7861H1.64279V8.2149H4.92837V14.7861ZM13.1423 20.4685L6.57115 15.2115V7.78942L13.1423 2.5325V20.4685Z" fill="#201F3A"/>
<path d="M18.9447 5.69159C18.6211 5.37124 18.102 5.37617 17.7833 5.69816C17.4646 6.02179 17.4678 6.54091 17.7898 6.85961C19.0301 8.08677 19.7135 9.73449 19.7135 11.5005C19.7135 13.2665 19.0301 14.9142 17.7898 16.1414C17.4662 16.4601 17.4629 16.9792 17.7833 17.3028C17.9443 17.4655 18.1562 17.5459 18.3665 17.5459C18.5751 17.5459 18.7837 17.4671 18.9447 17.3077C20.5004 15.7717 21.3563 13.71 21.3563 11.5005C21.3563 9.29094 20.5004 7.22924 18.9447 5.69159Z" fill="#201F3A"/>
<path d="M21.261 3.37684C20.939 3.05814 20.4183 3.05978 20.0996 3.38177C19.7809 3.70375 19.7825 4.22452 20.1045 4.54322C21.9707 6.39464 22.9991 8.8654 22.9991 11.5004C22.9991 14.1355 21.9707 16.6062 20.1045 18.4576C19.7825 18.7763 19.7809 19.2971 20.0996 19.6191C20.2605 19.7817 20.4708 19.8622 20.6827 19.8622C20.8914 19.8622 21.1 19.7834 21.261 19.624C23.441 17.4621 24.6419 14.5774 24.6419 11.5004C24.6419 8.42349 23.441 5.53875 21.261 3.37684Z" fill="#201F3A"/>
</svg>
