<svg width="25" height="25" viewBox="0 0 25 25" fill="none" xmlns="http://www.w3.org/2000/svg">
<g clip-path="url(#clip0)">
<path d="M24.6946 23.2216L17.5852 16.1124C18.9623 14.4113 19.7914 12.2499 19.7914 9.89575C19.7914 4.43955 15.3518 0 9.89571 0C4.43951 0 0 4.43951 0 9.89571C0 15.3518 4.43955 19.7914 9.89575 19.7914C12.2499 19.7914 14.4113 18.9623 16.1124 17.5852L23.2216 24.6946C23.4248 24.8976 23.6914 24.9998 23.9582 24.9998C24.2248 24.9998 24.4914 24.8976 24.6946 24.6946C25.1018 24.2873 25.1018 23.6289 24.6946 23.2216ZM9.89575 17.7082C5.58745 17.7082 2.08333 14.204 2.08333 9.89571C2.08333 5.5874 5.58745 2.08328 9.89575 2.08328C14.204 2.08328 17.7082 5.5874 17.7082 9.89571C17.7082 14.204 14.204 17.7082 9.89575 17.7082Z" fill="#0086C8"/>
</g>
<defs>
<clipPath id="clip0">
<rect width="25" height="25" fill="white"/>
</clipPath>
</defs>
</svg>
