<svg width="23" height="25" viewBox="0 0 23 25" fill="none" xmlns="http://www.w3.org/2000/svg">
<g clip-path="url(#clip0)">
<path d="M21.7634 1.88244e-06H1.25778C0.896114 -0.000741715 0.56455 0.218867 0.399224 0.568604C0.231618 0.92305 0.261034 1.34987 0.47516 1.67358L7.98757 13.1765C7.99007 13.1805 7.99281 13.1842 7.99532 13.1881C8.26828 13.5887 8.41582 14.0738 8.41673 14.5725V23.9507C8.41513 24.2285 8.51547 24.4952 8.69562 24.6923C8.87576 24.8893 9.12067 24.9999 9.37607 24.9999C9.50605 24.9999 9.63444 24.9716 9.75438 24.9176L13.9758 23.1679C14.3541 23.0425 14.6052 22.6546 14.6052 22.1874V14.5725C14.6058 14.074 14.7536 13.5887 15.0263 13.1881C15.0288 13.1842 15.0316 13.1805 15.0341 13.1765L22.5463 1.67309C22.7604 1.34963 22.7898 0.92305 22.6222 0.568604C22.4569 0.218867 22.1253 -0.000741715 21.7634 1.88244e-06ZM14.085 12.4364C13.6654 13.0553 13.4385 13.8036 13.4372 14.5725V22.0332L9.58427 23.6299V14.5725C9.5829 13.8036 9.35601 13.0553 8.93619 12.4364L1.64293 1.26907H21.3785L14.085 12.4364Z" fill="#0086C8"/>
</g>
<defs>
<clipPath id="clip0">
<rect width="23" height="25" fill="white"/>
</clipPath>
</defs>
</svg>
